<mxfile host="app.diagrams.net" modified="2022-07-04T08:57:05.144Z" agent="5.0 (Windows NT 10.0; Win64; x64) AppleWebKit/537.36 (KHTML, like Gecko) Chrome/103.0.5060.53 Safari/537.36 Edg/103.0.1264.37" etag="Ibl6cEJpMp3p-8rdPQJm" version="20.0.4" type="github" pages="2">
  <diagram id="UEnn1kFBSr4Ibmp3P3HB" name="第 1 页">
    <mxGraphModel dx="981" dy="526" grid="1" gridSize="10" guides="1" tooltips="1" connect="1" arrows="1" fold="1" page="1" pageScale="1" pageWidth="827" pageHeight="1169" math="0" shadow="0">
      <root>
        <mxCell id="0" />
        <mxCell id="1" parent="0" />
        <mxCell id="ElDdprlfaAyy8IrKMzbE-1" value="GUI" style="rounded=1;whiteSpace=wrap;html=1;fillColor=#dae8fc;strokeColor=none;" vertex="1" parent="1">
          <mxGeometry x="230" y="290" width="390" height="60" as="geometry" />
        </mxCell>
        <mxCell id="ElDdprlfaAyy8IrKMzbE-2" value="业务逻辑层" style="rounded=1;whiteSpace=wrap;html=1;fillColor=#d5e8d4;strokeColor=none;verticalAlign=top;" vertex="1" parent="1">
          <mxGeometry x="230" y="360" width="390" height="60" as="geometry" />
        </mxCell>
        <mxCell id="ElDdprlfaAyy8IrKMzbE-3" value="持久化层" style="rounded=1;whiteSpace=wrap;html=1;fillColor=#fff2cc;strokeColor=none;verticalAlign=middle;" vertex="1" parent="1">
          <mxGeometry x="230" y="430" width="390" height="60" as="geometry" />
        </mxCell>
        <mxCell id="ElDdprlfaAyy8IrKMzbE-4" value="文件系统" style="rounded=1;whiteSpace=wrap;html=1;fillColor=#f8cecc;strokeColor=none;verticalAlign=top;glass=0;shadow=0;" vertex="1" parent="1">
          <mxGeometry x="230" y="500" width="390" height="60" as="geometry" />
        </mxCell>
        <mxCell id="ElDdprlfaAyy8IrKMzbE-5" value="Athena" style="rounded=1;whiteSpace=wrap;html=1;fillColor=#1ba1e2;fontColor=#ffffff;strokeColor=none;" vertex="1" parent="1">
          <mxGeometry x="160" y="290" width="60" height="200" as="geometry" />
        </mxCell>
        <mxCell id="ElDdprlfaAyy8IrKMzbE-6" value="Linux" style="rounded=1;whiteSpace=wrap;html=1;fillColor=#fa6800;fontColor=#000000;strokeColor=none;" vertex="1" parent="1">
          <mxGeometry x="160" y="500" width="60" height="60" as="geometry" />
        </mxCell>
        <mxCell id="ElDdprlfaAyy8IrKMzbE-8" value="json" style="rounded=1;whiteSpace=wrap;html=1;fillColor=#F89F9F;strokeColor=none;" vertex="1" parent="1">
          <mxGeometry x="515" y="520" width="60" height="35" as="geometry" />
        </mxCell>
        <mxCell id="ElDdprlfaAyy8IrKMzbE-9" value="tf" style="rounded=1;whiteSpace=wrap;html=1;fillColor=#F89F9F;strokeColor=none;" vertex="1" parent="1">
          <mxGeometry x="395" y="520" width="60" height="35" as="geometry" />
        </mxCell>
        <mxCell id="ElDdprlfaAyy8IrKMzbE-10" value="gds" style="rounded=1;whiteSpace=wrap;html=1;fillColor=#F89F9F;strokeColor=none;" vertex="1" parent="1">
          <mxGeometry x="280" y="520" width="60" height="35" as="geometry" />
        </mxCell>
        <mxCell id="ElDdprlfaAyy8IrKMzbE-11" value="配置管理" style="rounded=1;whiteSpace=wrap;html=1;fillColor=#76608a;strokeColor=none;fontColor=#ffffff;" vertex="1" parent="1">
          <mxGeometry x="630" y="290" width="60" height="200" as="geometry" />
        </mxCell>
        <mxCell id="ElDdprlfaAyy8IrKMzbE-13" value="绘图" style="rounded=1;whiteSpace=wrap;html=1;fillColor=#7DD17D;strokeColor=none;" vertex="1" parent="1">
          <mxGeometry x="372.5" y="385" width="105" height="25" as="geometry" />
        </mxCell>
      </root>
    </mxGraphModel>
  </diagram>
  <diagram id="OqLdWUDpBFHAOiJWGxiF" name="第 2 页">
    <mxGraphModel dx="1185" dy="635" grid="1" gridSize="10" guides="1" tooltips="1" connect="1" arrows="1" fold="1" page="1" pageScale="1" pageWidth="827" pageHeight="1169" math="0" shadow="0">
      <root>
        <mxCell id="0" />
        <mxCell id="1" parent="0" />
        <mxCell id="_admKwhTJoDg5HJqSgGa-1" value="&lt;p style=&quot;margin:0px;margin-top:4px;text-align:center;&quot;&gt;&lt;i&gt;&amp;lt;&amp;lt;Interface&amp;gt;&amp;gt;&lt;/i&gt;&lt;br&gt;&lt;b&gt;DrawBase&lt;/b&gt;&lt;/p&gt;&lt;hr size=&quot;1&quot;&gt;&lt;p style=&quot;margin:0px;margin-left:4px;&quot;&gt;&lt;br&gt;&lt;/p&gt;&lt;hr size=&quot;1&quot;&gt;&lt;p style=&quot;margin:0px;margin-left:4px;&quot;&gt;+ draw(): Any&lt;br&gt;&lt;/p&gt;" style="verticalAlign=top;align=left;overflow=fill;fontSize=12;fontFamily=Helvetica;html=1;rounded=0;sketch=0;" vertex="1" parent="1">
          <mxGeometry x="280" y="70" width="190" height="100" as="geometry" />
        </mxCell>
        <mxCell id="_admKwhTJoDg5HJqSgGa-2" value="DrawDot" style="swimlane;fontStyle=1;align=center;verticalAlign=top;childLayout=stackLayout;horizontal=1;startSize=26;horizontalStack=0;resizeParent=1;resizeParentMax=0;resizeLast=0;collapsible=1;marginBottom=0;rounded=0;sketch=0;" vertex="1" parent="1">
          <mxGeometry x="110" y="250" width="160" height="58" as="geometry" />
        </mxCell>
        <mxCell id="_admKwhTJoDg5HJqSgGa-4" value="" style="line;strokeWidth=1;fillColor=none;align=left;verticalAlign=middle;spacingTop=-1;spacingLeft=3;spacingRight=3;rotatable=0;labelPosition=right;points=[];portConstraint=eastwest;rounded=0;sketch=0;" vertex="1" parent="_admKwhTJoDg5HJqSgGa-2">
          <mxGeometry y="26" width="160" height="8" as="geometry" />
        </mxCell>
        <mxCell id="_admKwhTJoDg5HJqSgGa-5" value="+ draw(): Figure" style="text;strokeColor=none;fillColor=none;align=left;verticalAlign=top;spacingLeft=4;spacingRight=4;overflow=hidden;rotatable=0;points=[[0,0.5],[1,0.5]];portConstraint=eastwest;rounded=0;sketch=0;" vertex="1" parent="_admKwhTJoDg5HJqSgGa-2">
          <mxGeometry y="34" width="160" height="24" as="geometry" />
        </mxCell>
        <mxCell id="_admKwhTJoDg5HJqSgGa-6" value="" style="endArrow=block;dashed=1;endFill=0;endSize=12;html=1;rounded=1;sketch=0;curved=0;entryX=0.5;entryY=1;entryDx=0;entryDy=0;exitX=0.5;exitY=0;exitDx=0;exitDy=0;" edge="1" parent="1" source="_admKwhTJoDg5HJqSgGa-2" target="_admKwhTJoDg5HJqSgGa-1">
          <mxGeometry width="160" relative="1" as="geometry">
            <mxPoint x="330" y="330" as="sourcePoint" />
            <mxPoint x="490" y="330" as="targetPoint" />
          </mxGeometry>
        </mxCell>
      </root>
    </mxGraphModel>
  </diagram>
</mxfile>
